<?xml version="1.0" encoding="UTF-8"?>
<svg fill="#13181C" width="10px" height="12px" viewBox="0 0 10 12" version="1.1" xmlns="http://www.w3.org/2000/svg" xmlns:xlink="http://www.w3.org/1999/xlink">
    <path d="M6.49999993,7.99997821 C7.60277195,8.00000586 8.5,8.89543052 8.5,10 C8.5,11.0077591 9,12 10.014665,12 L6.5841706,12.1782203 L3.01465966,12 C4,12 4.5,11.0077591 4.5,10.0021386 L4.5,10 C4.4999941,8.89543052 5.39722805,7.99999414 6.49999993,7.99997821 Z M1.50815116,3.99998698 C2.28615502,4.00000035 2.92552111,4.59489295 2.99805351,5.35554536 L3.00490621,5.50000541 L3.00492044,7.50001606 C3.00492634,8.32844317 2.33481584,9.00001127 1.50818679,9.0000136 C0.730182925,8.99999989 0.0908168402,8.40510728 0.0182844406,7.64445488 L0.0114317379,7.49999482 L0.0114175048,5.49998417 C0.0114116093,4.67155706 0.681522102,3.99998896 1.50815116,3.99998698 Z M6.50651487,1.00324969 C7.01768156,1.00326038 7.43898129,1.38930505 7.49656369,1.88664433 L7.50327077,2.00326552 L7.5032921,4.00327615 C7.50329799,4.55556088 7.05704472,5.00327136 6.50655755,5.00327095 C5.99539086,5.00326003 5.57409113,4.61721537 5.51650873,4.11987608 L5.50980165,4.00325489 L5.50978032,2.00324426 C5.50977443,1.45095953 5.9560277,1.00324906 6.50651487,1.00324969 Z"></path>
</svg>
